<svg width="30" height="30" viewBox="0 0 30 30" fill="none" xmlns="http://www.w3.org/2000/svg">
<g clip-path="url(#clip0_116_190)">
<path fill-rule="evenodd" clip-rule="evenodd" d="M15 30C23.2843 30 30 23.2843 30 15C30 6.71573 23.2843 0 15 0C6.71573 0 0 6.71573 0 15C0 23.2843 6.71573 30 15 30Z" fill="#424B5A"/>
<mask id="mask0_116_190" style="mask-type:luminance" maskUnits="userSpaceOnUse" x="0" y="0" width="30" height="30">
<path fill-rule="evenodd" clip-rule="evenodd" d="M15 30C23.2843 30 30 23.2843 30 15C30 6.71573 23.2843 0 15 0C6.71573 0 0 6.71573 0 15C0 23.2843 6.71573 30 15 30Z" fill="white"/>
</mask>
<g mask="url(#mask0_116_190)">
<rect width="30" height="30" fill="#4694DD"/>
<path d="M19.4482 13.269C19.4482 13.801 19.3432 14.312 19.1332 14.802C18.9232 15.292 18.6502 15.768 18.3142 16.23C17.9782 16.678 17.6002 17.112 17.1802 17.532C16.7602 17.952 16.3472 18.351 15.9412 18.729C15.7312 18.925 15.5002 19.149 15.2482 19.401C15.0102 19.639 14.7792 19.884 14.5552 20.136C14.3312 20.388 14.1282 20.626 13.9462 20.85C13.7782 21.06 13.6732 21.235 13.6312 21.375H19.8892V24H10.1872C10.1592 23.846 10.1452 23.65 10.1452 23.412C10.1452 23.174 10.1452 23.006 10.1452 22.908C10.1452 22.236 10.2502 21.62 10.4602 21.06C10.6842 20.5 10.9712 19.982 11.3212 19.506C11.6712 19.016 12.0632 18.561 12.4972 18.141C12.9452 17.721 13.3862 17.301 13.8202 16.881C14.1562 16.559 14.4712 16.258 14.7652 15.978C15.0592 15.684 15.3182 15.404 15.5422 15.138C15.7662 14.858 15.9412 14.585 16.0672 14.319C16.1932 14.039 16.2562 13.759 16.2562 13.479C16.2562 12.863 16.0812 12.429 15.7312 12.177C15.3812 11.925 14.9472 11.799 14.4292 11.799C14.0512 11.799 13.6942 11.862 13.3582 11.988C13.0362 12.1 12.7352 12.24 12.4552 12.408C12.1892 12.562 11.9582 12.723 11.7622 12.891C11.5662 13.045 11.4192 13.171 11.3212 13.269L9.76722 11.085C10.3832 10.511 11.0972 10.042 11.9092 9.678C12.7352 9.3 13.6172 9.111 14.5552 9.111C15.4092 9.111 16.1442 9.209 16.7602 9.405C17.3762 9.601 17.8802 9.881 18.2722 10.245C18.6782 10.595 18.9722 11.029 19.1542 11.547C19.3502 12.051 19.4482 12.625 19.4482 13.269Z" fill="white"/>
</g>
</g>
<defs>
<clipPath id="clip0_116_190">
<rect width="30" height="30" fill="white"/>
</clipPath>
</defs>
</svg>
