<svg width="30" height="30" viewBox="0 0 30 30" fill="none" xmlns="http://www.w3.org/2000/svg">
<g clip-path="url(#clip0_116_224)">
<path fill-rule="evenodd" clip-rule="evenodd" d="M15 30C23.2843 30 30 23.2843 30 15C30 6.71573 23.2843 0 15 0C6.71573 0 0 6.71573 0 15C0 23.2843 6.71573 30 15 30Z" fill="#424B5A"/>
<mask id="mask0_116_224" style="mask-type:luminance" maskUnits="userSpaceOnUse" x="0" y="0" width="30" height="30">
<path fill-rule="evenodd" clip-rule="evenodd" d="M15 30C23.2843 30 30 23.2843 30 15C30 6.71573 23.2843 0 15 0C6.71573 0 0 6.71573 0 15C0 23.2843 6.71573 30 15 30Z" fill="white"/>
</mask>
<g mask="url(#mask0_116_224)">
<rect width="30" height="30" fill="#4694DD"/>
<path d="M13.8202 24.315C13.4422 24.315 13.0432 24.287 12.6232 24.231C12.2032 24.189 11.7972 24.126 11.4052 24.042C11.0132 23.958 10.6562 23.867 10.3342 23.769C10.0122 23.671 9.76022 23.58 9.57822 23.496L10.1872 20.892C10.5512 21.046 11.0132 21.214 11.5732 21.396C12.1472 21.564 12.8542 21.648 13.6942 21.648C14.6602 21.648 15.3672 21.466 15.8152 21.102C16.2632 20.738 16.4872 20.248 16.4872 19.632C16.4872 19.254 16.4032 18.939 16.2352 18.687C16.0812 18.421 15.8642 18.211 15.5842 18.057C15.3042 17.889 14.9682 17.777 14.5762 17.721C14.1982 17.651 13.7922 17.616 13.3582 17.616H12.1402V15.096H13.5262C13.8342 15.096 14.1282 15.068 14.4082 15.012C14.7022 14.956 14.9612 14.865 15.1852 14.739C15.4092 14.599 15.5842 14.417 15.7102 14.193C15.8502 13.955 15.9202 13.661 15.9202 13.311C15.9202 13.045 15.8642 12.814 15.7522 12.618C15.6402 12.422 15.4932 12.261 15.3112 12.135C15.1432 12.009 14.9402 11.918 14.7022 11.862C14.4782 11.792 14.2472 11.757 14.0092 11.757C13.4072 11.757 12.8472 11.848 12.3292 12.03C11.8252 12.212 11.3632 12.436 10.9432 12.702L9.83022 10.413C10.0542 10.273 10.3132 10.126 10.6072 9.972C10.9152 9.818 11.2512 9.678 11.6152 9.552C11.9792 9.426 12.3642 9.321 12.7702 9.237C13.1902 9.153 13.6312 9.111 14.0932 9.111C14.9472 9.111 15.6822 9.216 16.2982 9.426C16.9282 9.622 17.4462 9.909 17.8522 10.287C18.2582 10.651 18.5592 11.085 18.7552 11.589C18.9512 12.079 19.0492 12.618 19.0492 13.206C19.0492 13.78 18.8882 14.34 18.5662 14.886C18.2442 15.418 17.8102 15.824 17.2642 16.104C18.0202 16.412 18.6012 16.874 19.0072 17.49C19.4272 18.092 19.6372 18.82 19.6372 19.674C19.6372 20.346 19.5252 20.969 19.3012 21.543C19.0772 22.103 18.7272 22.593 18.2512 23.013C17.7752 23.419 17.1662 23.741 16.4242 23.979C15.6962 24.203 14.8282 24.315 13.8202 24.315Z" fill="white"/>
</g>
</g>
<defs>
<clipPath id="clip0_116_224">
<rect width="30" height="30" fill="white"/>
</clipPath>
</defs>
</svg>
