<svg width="134" height="97" viewBox="0 0 134 97" fill="none" xmlns="http://www.w3.org/2000/svg">
<path d="M14.4469 96.3809C7.01406 96.3809 1.04688 90.1894 1.04688 82.6564V14.1372C1.04688 6.60427 7.01406 0.412781 14.4469 0.412781H119.239C126.672 0.412781 132.639 6.60427 132.639 14.1372V82.5532C132.639 90.0862 126.672 96.2777 119.239 96.2777H14.4469V96.3809ZM14.4469 5.88193C9.94531 5.88193 6.38594 9.59682 6.38594 14.1372V82.5532C6.38594 87.0936 10.05 90.8085 14.4469 90.8085H119.239C123.741 90.8085 127.3 87.0936 127.3 82.5532V14.1372C127.3 9.59682 123.636 5.88193 119.239 5.88193H14.4469Z" fill="#4694DD" stroke="#4694DD" stroke-width="0.0625"/>
<path d="M70.8735 27.8617C69.1985 27.8617 67.8375 26.5203 67.8375 24.766C67.8375 23.0117 69.1985 21.6703 70.8735 21.6703H113.795C115.47 21.6703 116.831 23.0117 116.831 24.766C116.831 26.5203 115.47 27.8617 113.795 27.8617H70.8735ZM70.8735 43.2373C69.1985 43.2373 67.8375 41.8958 67.8375 40.1415C67.8375 38.3873 69.1985 37.0458 70.8735 37.0458H113.795C115.47 37.0458 116.831 38.3873 116.831 40.1415C116.831 41.8958 115.47 43.2373 113.795 43.2373H70.8735ZM70.8735 59.6447C69.1985 59.6447 67.8375 58.3032 67.8375 56.549C67.8375 54.7947 69.1985 53.4532 70.8735 53.4532H107.095C108.77 53.4532 110.131 54.7947 110.131 56.549C110.131 58.3032 108.77 59.6447 107.095 59.6447H70.8735ZM7.6422 91.6341C7.32814 91.6341 7.01408 91.6341 6.70002 91.5309C5.02502 91.015 4.08283 89.1575 4.60626 87.4032C7.6422 77.2905 14.761 69.0352 23.9735 64.7011L26.0672 63.6692L24.2875 62.1213C19.0531 57.6841 16.0172 51.0798 16.0172 44.166C16.0172 31.2671 26.2766 20.8447 38.7344 20.8447C51.2969 20.8447 61.4516 31.2671 61.4516 44.166C61.4516 51.0798 58.4156 57.6841 53.1813 62.1213L51.4016 63.6692L53.4953 64.7011C62.3938 68.8288 70.8735 79.1479 74.1188 89.7767C76.2125 96.5873 71.9203 94.4203 73.9094 91.8405C73.4906 92.4596 71.711 91.1181 69.7219 91.1181C68.0469 91.1181 67.2094 94.3171 67.2094 94.0075C63.1266 80.5926 51.4016 67.7969 38.7344 67.7969C25.7531 67.7969 14.3422 76.465 10.4688 89.2607C10.2594 90.7054 9.00314 91.6341 7.6422 91.6341ZM38.9438 27.3458C29.836 27.3458 22.4031 34.8788 22.4031 44.166C22.4031 53.4532 29.836 60.9862 38.9438 60.9862C48.0516 60.9862 55.4844 53.4532 55.4844 44.166C55.3797 34.8788 48.0516 27.3458 38.9438 27.3458Z" fill="#4694DD" stroke="#4694DD" stroke-width="0.0625"/>
</svg>
