<svg width="128" height="23" viewBox="0 0 128 23" fill="none" xmlns="http://www.w3.org/2000/svg">
<path d="M4.26172 0.9375V18H0.757812V0.9375H4.26172ZM10.6484 8.02734V18H7.27344V5.32031H10.4375L10.6484 8.02734ZM10.1562 11.2148H9.24219C9.24219 10.2773 9.36328 9.43359 9.60547 8.68359C9.84766 7.92578 10.1875 7.28125 10.625 6.75C11.0625 6.21094 11.582 5.80078 12.1836 5.51953C12.793 5.23047 13.4727 5.08594 14.2227 5.08594C14.8164 5.08594 15.3594 5.17188 15.8516 5.34375C16.3438 5.51562 16.7656 5.78906 17.1172 6.16406C17.4766 6.53906 17.75 7.03516 17.9375 7.65234C18.1328 8.26953 18.2305 9.02344 18.2305 9.91406V18H14.832V9.90234C14.832 9.33984 14.7539 8.90234 14.5977 8.58984C14.4414 8.27734 14.2109 8.05859 13.9062 7.93359C13.6094 7.80078 13.2422 7.73438 12.8047 7.73438C12.3516 7.73438 11.957 7.82422 11.6211 8.00391C11.293 8.18359 11.0195 8.43359 10.8008 8.75391C10.5898 9.06641 10.4297 9.43359 10.3203 9.85547C10.2109 10.2773 10.1562 10.7305 10.1562 11.2148ZM27.6523 14.4961C27.6523 14.2539 27.582 14.0352 27.4414 13.8398C27.3008 13.6445 27.0391 13.4648 26.6562 13.3008C26.2812 13.1289 25.7383 12.9727 25.0273 12.832C24.3867 12.6914 23.7891 12.5156 23.2344 12.3047C22.6875 12.0859 22.2109 11.8242 21.8047 11.5195C21.4062 11.2148 21.0938 10.8555 20.8672 10.4414C20.6406 10.0195 20.5273 9.53906 20.5273 9C20.5273 8.46875 20.6406 7.96875 20.8672 7.5C21.1016 7.03125 21.4336 6.61719 21.8633 6.25781C22.3008 5.89062 22.832 5.60547 23.457 5.40234C24.0898 5.19141 24.8008 5.08594 25.5898 5.08594C26.6914 5.08594 27.6367 5.26172 28.4258 5.61328C29.2227 5.96484 29.832 6.44922 30.2539 7.06641C30.6836 7.67578 30.8984 8.37109 30.8984 9.15234H27.5234C27.5234 8.82422 27.4531 8.53125 27.3125 8.27344C27.1797 8.00781 26.9688 7.80078 26.6797 7.65234C26.3984 7.49609 26.0312 7.41797 25.5781 7.41797C25.2031 7.41797 24.8789 7.48438 24.6055 7.61719C24.332 7.74219 24.1211 7.91406 23.9727 8.13281C23.832 8.34375 23.7617 8.57812 23.7617 8.83594C23.7617 9.03125 23.8008 9.20703 23.8789 9.36328C23.9648 9.51172 24.1016 9.64844 24.2891 9.77344C24.4766 9.89844 24.7188 10.0156 25.0156 10.125C25.3203 10.2266 25.6953 10.3203 26.1406 10.4062C27.0547 10.5938 27.8711 10.8398 28.5898 11.1445C29.3086 11.4414 29.8789 11.8477 30.3008 12.3633C30.7227 12.8711 30.9336 13.5391 30.9336 14.3672C30.9336 14.9297 30.8086 15.4453 30.5586 15.9141C30.3086 16.3828 29.9492 16.793 29.4805 17.1445C29.0117 17.4883 28.4492 17.7578 27.793 17.9531C27.1445 18.1406 26.4141 18.2344 25.6016 18.2344C24.4219 18.2344 23.4219 18.0234 22.6016 17.6016C21.7891 17.1797 21.1719 16.6445 20.75 15.9961C20.3359 15.3398 20.1289 14.668 20.1289 13.9805H23.3281C23.3438 14.4414 23.4609 14.8125 23.6797 15.0938C23.9062 15.375 24.1914 15.5781 24.5352 15.7031C24.8867 15.8281 25.2656 15.8906 25.6719 15.8906C26.1094 15.8906 26.4727 15.832 26.7617 15.7148C27.0508 15.5898 27.2695 15.4258 27.418 15.2227C27.5742 15.0117 27.6523 14.7695 27.6523 14.4961ZM36.6875 5.32031V18H33.3008V5.32031H36.6875ZM33.0898 2.01562C33.0898 1.52344 33.2617 1.11719 33.6055 0.796875C33.9492 0.476563 34.4102 0.316406 34.9883 0.316406C35.5586 0.316406 36.0156 0.476563 36.3594 0.796875C36.7109 1.11719 36.8867 1.52344 36.8867 2.01562C36.8867 2.50781 36.7109 2.91406 36.3594 3.23438C36.0156 3.55469 35.5586 3.71484 34.9883 3.71484C34.4102 3.71484 33.9492 3.55469 33.6055 3.23438C33.2617 2.91406 33.0898 2.50781 33.0898 2.01562ZM47.5039 5.32031H50.5625V17.5781C50.5625 18.7344 50.3047 19.7148 49.7891 20.5195C49.2812 21.332 48.5703 21.9453 47.6562 22.3594C46.7422 22.7812 45.6797 22.9922 44.4688 22.9922C43.9375 22.9922 43.375 22.9219 42.7812 22.7812C42.1953 22.6406 41.6328 22.4219 41.0938 22.125C40.5625 21.8281 40.1172 21.4531 39.7578 21L41.2461 19.0078C41.6367 19.4609 42.0898 19.8125 42.6055 20.0625C43.1211 20.3203 43.6914 20.4492 44.3164 20.4492C44.9258 20.4492 45.4414 20.3359 45.8633 20.1094C46.2852 19.8906 46.6094 19.5664 46.8359 19.1367C47.0625 18.7148 47.1758 18.2031 47.1758 17.6016V8.25L47.5039 5.32031ZM38.9727 11.8125V11.5664C38.9727 10.5977 39.0898 9.71875 39.3242 8.92969C39.5664 8.13281 39.9062 7.44922 40.3438 6.87891C40.7891 6.30859 41.3281 5.86719 41.9609 5.55469C42.5938 5.24219 43.3086 5.08594 44.1055 5.08594C44.9492 5.08594 45.6562 5.24219 46.2266 5.55469C46.7969 5.86719 47.2656 6.3125 47.6328 6.89062C48 7.46094 48.2852 8.13672 48.4883 8.91797C48.6992 9.69141 48.8633 10.5391 48.9805 11.4609V12C48.8633 12.8828 48.6875 13.7031 48.4531 14.4609C48.2188 15.2188 47.9102 15.8828 47.5273 16.4531C47.1445 17.0156 46.668 17.4531 46.0977 17.7656C45.5352 18.0781 44.8633 18.2344 44.082 18.2344C43.3008 18.2344 42.5938 18.0742 41.9609 17.7539C41.3359 17.4336 40.8008 16.9844 40.3555 16.4062C39.9102 15.8281 39.5664 15.1484 39.3242 14.3672C39.0898 13.5859 38.9727 12.7344 38.9727 11.8125ZM42.3477 11.5664V11.8125C42.3477 12.3359 42.3984 12.8242 42.5 13.2773C42.6016 13.7305 42.7578 14.1328 42.9688 14.4844C43.1875 14.8281 43.457 15.0977 43.7773 15.293C44.1055 15.4805 44.4922 15.5742 44.9375 15.5742C45.5547 15.5742 46.0586 15.4453 46.4492 15.1875C46.8398 14.9219 47.1328 14.5586 47.3281 14.0977C47.5234 13.6367 47.6367 13.1055 47.668 12.5039V10.9688C47.6523 10.4766 47.5859 10.0352 47.4688 9.64453C47.3516 9.24609 47.1875 8.90625 46.9766 8.625C46.7656 8.34375 46.4922 8.125 46.1562 7.96875C45.8203 7.8125 45.4219 7.73438 44.9609 7.73438C44.5156 7.73438 44.1289 7.83594 43.8008 8.03906C43.4805 8.23438 43.2109 8.50391 42.9922 8.84766C42.7812 9.19141 42.6211 9.59766 42.5117 10.0664C42.4023 10.5273 42.3477 11.0273 42.3477 11.5664ZM56.4805 0V18H53.1055V0H56.4805ZM56 11.2148H55.0742C55.082 10.332 55.1992 9.51953 55.4258 8.77734C55.6523 8.02734 55.9766 7.37891 56.3984 6.83203C56.8203 6.27734 57.3242 5.84766 57.9102 5.54297C58.5039 5.23828 59.1602 5.08594 59.8789 5.08594C60.5039 5.08594 61.0703 5.17578 61.5781 5.35547C62.0938 5.52734 62.5352 5.80859 62.9023 6.19922C63.2773 6.58203 63.5664 7.08594 63.7695 7.71094C63.9727 8.33594 64.0742 9.09375 64.0742 9.98438V18H60.6758V9.96094C60.6758 9.39844 60.5938 8.95703 60.4297 8.63672C60.2734 8.30859 60.043 8.07812 59.7383 7.94531C59.4414 7.80469 59.0742 7.73438 58.6367 7.73438C58.1523 7.73438 57.7383 7.82422 57.3945 8.00391C57.0586 8.18359 56.7891 8.43359 56.5859 8.75391C56.3828 9.06641 56.2344 9.43359 56.1406 9.85547C56.0469 10.2773 56 10.7305 56 11.2148ZM72.8516 5.32031V7.71094H65.4688V5.32031H72.8516ZM67.2969 2.19141H70.6719V14.1797C70.6719 14.5469 70.7188 14.8281 70.8125 15.0234C70.9141 15.2188 71.0625 15.3555 71.2578 15.4336C71.4531 15.5039 71.6992 15.5391 71.9961 15.5391C72.207 15.5391 72.3945 15.5312 72.5586 15.5156C72.7305 15.4922 72.875 15.4688 72.9922 15.4453L73.0039 17.9297C72.7148 18.0234 72.4023 18.0977 72.0664 18.1523C71.7305 18.207 71.3594 18.2344 70.9531 18.2344C70.2109 18.2344 69.5625 18.1133 69.0078 17.8711C68.4609 17.6211 68.0391 17.2227 67.7422 16.6758C67.4453 16.1289 67.2969 15.4102 67.2969 14.5195V2.19141Z" fill="white"/>
<path d="M78.5 0.9375V18H74.9844V0.9375H78.5ZM85.2969 8.22656V10.9688H77.5391V8.22656H85.2969ZM86.1172 0.9375V3.69141H77.5391V0.9375H86.1172ZM91.5078 0V18H88.1211V0H91.5078ZM93.7578 11.7891V11.543C93.7578 10.6133 93.8906 9.75781 94.1562 8.97656C94.4219 8.1875 94.8086 7.50391 95.3164 6.92578C95.8242 6.34766 96.4492 5.89844 97.1914 5.57812C97.9336 5.25 98.7852 5.08594 99.7461 5.08594C100.707 5.08594 101.562 5.25 102.312 5.57812C103.062 5.89844 103.691 6.34766 104.199 6.92578C104.715 7.50391 105.105 8.1875 105.371 8.97656C105.637 9.75781 105.77 10.6133 105.77 11.543V11.7891C105.77 12.7109 105.637 13.5664 105.371 14.3555C105.105 15.1367 104.715 15.8203 104.199 16.4062C103.691 16.9844 103.066 17.4336 102.324 17.7539C101.582 18.0742 100.73 18.2344 99.7695 18.2344C98.8086 18.2344 97.9531 18.0742 97.2031 17.7539C96.4609 17.4336 95.832 16.9844 95.3164 16.4062C94.8086 15.8203 94.4219 15.1367 94.1562 14.3555C93.8906 13.5664 93.7578 12.7109 93.7578 11.7891ZM97.1328 11.543V11.7891C97.1328 12.3203 97.1797 12.8164 97.2734 13.2773C97.3672 13.7383 97.5156 14.1445 97.7188 14.4961C97.9297 14.8398 98.2031 15.1094 98.5391 15.3047C98.875 15.5 99.2852 15.5977 99.7695 15.5977C100.238 15.5977 100.641 15.5 100.977 15.3047C101.312 15.1094 101.582 14.8398 101.785 14.4961C101.988 14.1445 102.137 13.7383 102.23 13.2773C102.332 12.8164 102.383 12.3203 102.383 11.7891V11.543C102.383 11.0273 102.332 10.543 102.23 10.0898C102.137 9.62891 101.984 9.22266 101.773 8.87109C101.57 8.51172 101.301 8.23047 100.965 8.02734C100.629 7.82422 100.223 7.72266 99.7461 7.72266C99.2695 7.72266 98.8633 7.82422 98.5273 8.02734C98.1992 8.23047 97.9297 8.51172 97.7188 8.87109C97.5156 9.22266 97.3672 9.62891 97.2734 10.0898C97.1797 10.543 97.1328 11.0273 97.1328 11.543ZM111.465 14.7188L114.102 5.32031H116.246L115.555 9.01172L112.918 18H111.125L111.465 14.7188ZM110.129 5.32031L112.016 14.707L112.191 18H110.082L106.871 5.32031H110.129ZM118.66 14.5547L120.5 5.32031H123.77L120.559 18H118.461L118.66 14.5547ZM116.539 5.32031L119.164 14.6484L119.527 18H117.723L115.086 9.02344L114.418 5.32031H116.539ZM124.18 16.3711C124.18 15.8711 124.352 15.4531 124.695 15.1172C125.047 14.7812 125.512 14.6133 126.09 14.6133C126.668 14.6133 127.129 14.7812 127.473 15.1172C127.824 15.4531 128 15.8711 128 16.3711C128 16.8711 127.824 17.2891 127.473 17.625C127.129 17.9609 126.668 18.1289 126.09 18.1289C125.512 18.1289 125.047 17.9609 124.695 17.625C124.352 17.2891 124.18 16.8711 124.18 16.3711Z" fill="#4694DD"/>
</svg>
