<svg width="105" height="97" viewBox="0 0 105 97" fill="none" xmlns="http://www.w3.org/2000/svg">
<g clip-path="url(#clip0_127_298)">
<path d="M26.7567 75.5237C25.8397 76.447 25.0983 78.2513 25.0983 79.5549V96.5354H34.8891V69.6971C34.8891 68.3935 34.1478 68.0817 33.2307 69.005L26.7567 75.5237Z" fill="#4694DD" stroke="#4694DD" stroke-width="0.26658"/>
<path d="M69.7614 59.4358C68.8467 60.3591 68.1031 62.1637 68.1031 63.4697V96.538H77.8938V53.5999C77.8938 52.2963 77.1525 51.9868 76.2354 52.9102L69.7614 59.4358Z" fill="#4694DD" stroke="#4694DD" stroke-width="0.26658"/>
<path d="M84.0934 44.9845C83.1763 45.9055 82.4327 47.7098 82.4327 49.0134V96.5354H91.5361V39.8645C91.5361 38.5609 90.7924 38.2491 89.8754 39.1725L84.0934 44.9845Z" fill="#4694DD" stroke="#4694DD" stroke-width="0.26658"/>
<path d="M55.7158 73.5753C55.7158 73.5753 55.2794 74.0169 54.7401 74.5602C54.2031 75.1035 53.7668 76.603 53.7668 77.9067V96.5357H63.5575V68.0489C63.5575 66.7452 62.8139 66.4334 61.8968 67.3568L55.7158 73.5753Z" fill="#4694DD" stroke="#4694DD" stroke-width="0.26658"/>
<path d="M41.0933 68.566C40.1762 67.645 39.4326 67.9545 39.4326 69.2581V96.5357H49.2233V79.0944C49.2233 77.7908 48.5195 76.0266 47.6495 75.1553L46.0756 73.5776L41.0933 68.566Z" fill="#4694DD" stroke="#4694DD" stroke-width="0.26658"/>
<path d="M14.4349 87.9368L11.2731 91.1252C10.3584 92.0486 9.61703 93.6335 9.61703 94.6678V96.5383H20.5453V84.1368C20.5453 82.8331 19.804 82.5237 18.8869 83.4471L14.4349 87.9368Z" fill="#4694DD" stroke="#4694DD" stroke-width="0.26658"/>
<path d="M103.342 39.4322C104.256 40.3555 105 40.0438 105 38.7401V4.9939C105 2.57775 102.701 0.461731 100.316 0.461731H66.9935C65.6987 0.461731 65.3891 1.21046 66.3062 2.1338L78.1587 14.0768L73.3244 18.9231L50.9025 41.5197L39.043 29.5816C38.1259 28.6583 36.6433 28.6606 35.7262 29.5816L2.74685 62.8107C-0.917074 66.502 -0.914766 72.4843 2.74916 76.173L2.97915 76.4069C6.64307 80.0959 12.5847 80.0959 16.246 76.4046L37.3826 55.1116L49.2421 67.0404C50.1591 67.9614 51.6441 67.9614 52.5612 67.0404L91.6558 27.671L103.342 39.4322Z" fill="#4694DD" stroke="#4694DD" stroke-width="0.26658"/>
</g>
<defs>
<clipPath id="clip0_127_298">
<rect width="105" height="97" fill="white"/>
</clipPath>
</defs>
</svg>
