<svg width="103" height="97" viewBox="0 0 103 97" fill="none" xmlns="http://www.w3.org/2000/svg">
<g clip-path="url(#clip0_126_285)">
<path d="M51.7776 18.1093C56.6772 18.1093 60.6634 14.1119 60.6634 9.19844C60.6634 4.285 56.6772 0.287598 51.7776 0.287598C46.8779 0.287598 42.8918 4.285 42.8918 9.19844C42.8918 14.1119 46.8779 18.1093 51.7776 18.1093Z" fill="#4694DD" stroke="#4694DD" stroke-width="0.326347"/>
<path d="M37.7073 45.4437H65.7228C67.5473 45.4437 69.0263 43.9605 69.0263 42.1309V29.8812C69.0263 26.4902 66.8532 23.4835 63.6398 22.4278L63.6248 22.4229L58.9248 21.6424C58.5249 21.519 58.0973 21.7314 57.9535 22.1272L52.6207 36.8004C52.313 37.647 51.1192 37.647 50.8114 36.8004L45.4786 22.1272C45.3626 21.8075 45.0618 21.6073 44.7395 21.6073C44.6633 21.6073 44.5853 21.6188 44.5084 21.6424L39.8073 22.4219C36.5676 23.5044 34.4031 26.5162 34.4031 29.9218V42.1309C34.4038 43.9605 35.8828 45.4437 37.7073 45.4437Z" fill="#4694DD" stroke="#4694DD" stroke-width="0.326347"/>
<path d="M17.3918 69.4768C22.2914 69.4768 26.2776 65.4794 26.2776 60.5659C26.2776 55.6525 22.2914 51.6551 17.3918 51.6551C12.4922 51.6551 8.506 55.6525 8.506 60.5659C8.506 65.4794 12.4922 69.4768 17.3918 69.4768Z" fill="#4694DD" stroke="#4694DD" stroke-width="0.326347"/>
<path d="M29.2363 73.795L29.2214 73.7901L24.5214 73.0096C24.1215 72.8862 23.6938 73.0985 23.55 73.4944L18.2172 88.1676C17.9095 89.0141 16.7157 89.0141 16.408 88.1676L11.0752 73.4944C10.9591 73.1747 10.6583 72.9745 10.336 72.9745C10.2598 72.9745 10.1818 72.986 10.1049 73.0096L5.40384 73.789C2.16445 74.8715 0 77.8834 0 81.289V93.4981C0 95.3277 1.479 96.8109 3.3035 96.8109H31.319C33.1435 96.8109 34.6225 95.3277 34.6225 93.4981V81.2483C34.6225 77.8577 32.4497 74.8507 29.2363 73.795Z" fill="#4694DD" stroke="#4694DD" stroke-width="0.326347"/>
<path d="M85.6896 69.4768C90.5893 69.4768 94.5754 65.4794 94.5754 60.5659C94.5754 55.6525 90.5893 51.6551 85.6896 51.6551C80.79 51.6551 76.8038 55.6525 76.8038 60.5659C76.8038 65.4794 80.7897 69.4768 85.6896 69.4768Z" fill="#4694DD" stroke="#4694DD" stroke-width="0.326347"/>
<path d="M97.6135 73.795L97.5986 73.7901L92.8986 73.0096C92.4987 72.8862 92.0711 73.0985 91.9272 73.4944L86.5944 88.1676C86.2867 89.0141 85.0929 89.0141 84.7852 88.1676L79.4524 73.4944C79.3363 73.1747 79.0355 72.9745 78.7132 72.9745C78.637 72.9745 78.559 72.986 78.4821 73.0096L73.781 73.789C70.5413 74.8715 68.3769 77.8834 68.3769 81.289V93.4981C68.3769 95.3277 69.8559 96.8109 71.6804 96.8109H99.6958C101.52 96.8109 102.999 95.3277 102.999 93.4981V81.2483C103 77.8577 100.827 74.8507 97.6135 73.795Z" fill="#4694DD" stroke="#4694DD" stroke-width="0.326347"/>
<path d="M54.7079 47.9513H48.8438V61.3478L35.04 75.1905C36.2896 76.9058 37.008 79.0093 37.008 81.2479V81.5336L51.7758 66.7238L65.975 80.9633C66.0461 78.6951 66.8511 76.5777 68.1987 74.8767L54.7079 61.3478V47.9513Z" fill="#4694DD" stroke="#4694DD" stroke-width="0.326347"/>
<path d="M53.8994 21.5965C53.6683 21.3442 53.3307 21.217 52.989 21.217H50.441C50.0993 21.217 49.7618 21.3439 49.5307 21.5965C49.173 21.9871 49.121 22.5515 49.3751 22.9928L50.7369 25.0518L50.0993 30.4459L51.3548 33.7952C51.4771 34.1319 51.9522 34.1319 52.0749 33.7952L53.3304 30.4459L52.6928 25.0518L54.0546 22.9928C54.3086 22.5515 54.257 21.9871 53.8994 21.5965Z" fill="#4694DD" stroke="#4694DD" stroke-width="0.326347"/>
<path d="M19.4956 72.9744C19.2645 72.7222 18.9269 72.595 18.5853 72.595H16.0372C15.6955 72.595 15.358 72.7218 15.1269 72.9744C14.7692 73.3651 14.7173 73.9294 14.9713 74.3707L16.3331 76.4297L15.6955 81.8234L16.951 85.1727C17.0733 85.5095 17.5484 85.5095 17.6708 85.1727L18.9262 81.8234L18.2886 76.4297L19.6505 74.3707C19.9049 73.9298 19.8532 73.3654 19.4956 72.9744Z" fill="#4694DD" stroke="#4694DD" stroke-width="0.326347"/>
<path d="M87.8728 72.9744C87.6417 72.7222 87.3041 72.595 86.9625 72.595H84.4144C84.0727 72.595 83.7352 72.7218 83.5041 72.9744C83.1464 73.3651 83.0945 73.9294 83.3485 74.3707L84.7103 76.4297L84.0727 81.8234L85.3282 85.1727C85.4505 85.5095 85.9256 85.5095 86.048 85.1727L87.3034 81.8234L86.6658 76.4297L88.0277 74.3707C88.2824 73.9298 88.2304 73.3654 87.8728 72.9744Z" fill="#4694DD" stroke="#4694DD" stroke-width="0.326347"/>
</g>
<defs>
<clipPath id="clip0_126_285">
<rect width="103" height="97" fill="white"/>
</clipPath>
</defs>
</svg>
